{"glyphs":{"0":{"ha":843,"x_min":0,"x_max":0,"o":"m 422 -11 b 422 983 908 -11 908 983 b 422 -11 -65 983 -65 -11 z m 419 28 b 419 943 122 28 122 943 b 419 28 717 943 717 28 z "},"1":{"ha":343,"x_min":0,"x_max":0,"o":"m 107 0 l 244 0 l 244 972 l 131 972 l 64 828 l 107 828 z "},"2":{"ha":642,"x_min":0,"x_max":0,"o":"m 107 182 b 579 738 157 385 579 422 b 310 986 579 897 440 986 b 76 754 190 986 76 913 l 214 754 b 325 946 214 882 269 946 b 439 746 382 946 439 881 b 63 139 439 504 63 422 l 63 0 l 560 0 l 560 139 l 146 139 b 107 182 118 139 101 158 z "},"3":{"ha":658,"x_min":0,"x_max":0,"o":"m 485 499 b 596 736 569 550 596 650 b 313 982 596 896 451 982 b 63 754 185 982 63 910 l 200 754 b 325 942 200 872 261 942 b 456 694 389 942 456 867 b 285 504 456 613 414 504 l 192 504 l 192 465 l 285 465 b 456 232 414 465 456 314 b 318 26 456 99 385 26 b 200 215 258 26 200 86 l 63 215 b 311 -12 63 60 185 -12 b 596 235 450 -12 596 74 b 485 471 596 321 569 419 b 485 499 468 481 468 489 z "},"4":{"ha":625,"x_min":0,"x_max":0,"o":"m 390 0 l 528 0 l 528 972 l 390 972 l 36 339 l 36 261 l 336 261 b 390 207 369 261 390 239 z m 131 346 b 107 386 103 346 93 363 l 374 865 b 390 857 379 874 390 878 l 390 400 b 336 346 390 368 369 346 z "},"5":{"ha":683,"x_min":0,"x_max":0,"o":"m 132 835 l 568 835 l 568 972 l 93 972 l 93 568 l 132 568 b 267 628 151 601 207 628 b 481 333 367 628 481 557 b 310 33 481 143 408 33 b 132 281 179 33 132 144 l 93 281 b 314 -11 81 153 132 -11 b 621 333 479 -11 621 143 b 313 682 621 597 453 682 b 163 643 253 682 197 667 b 142 633 154 638 147 633 b 132 656 135 633 132 640 z "},"6":{"ha":725,"x_min":0,"x_max":0,"o":"m 264 604 b 244 597 256 600 250 597 b 240 621 236 597 235 606 b 553 933 293 793 397 933 l 553 972 b 369 -11 -39 972 -104 -11 b 368 629 760 -11 778 629 b 264 604 329 629 293 619 z m 369 14 b 208 479 229 14 176 247 b 363 590 231 553 297 590 b 369 14 603 590 567 14 z "},"7":{"ha":586,"x_min":0,"x_max":0,"o":"m 432 799 b 164 0 251 593 74 246 l 301 0 b 531 835 218 217 310 679 l 531 972 l 83 972 l 83 835 l 417 835 b 432 799 446 835 451 821 z "},"8":{"ha":704,"x_min":0,"x_max":0,"o":"m 210 585 b 203 535 228 567 225 549 b 56 283 108 476 56 375 b 344 -12 56 78 199 -12 b 649 251 496 -12 649 85 b 500 526 649 374 581 458 b 501 581 481 543 481 563 b 590 778 551 624 590 689 b 361 983 590 915 476 983 b 118 758 239 983 114 908 b 210 585 119 690 157 635 z m 468 604 b 435 593 458 597 447 593 b 399 606 422 593 410 597 b 246 799 317 668 246 724 b 381 943 246 899 311 943 b 551 778 463 943 551 882 b 468 604 551 704 522 647 z m 238 506 b 268 515 246 511 257 515 b 308 500 282 515 296 510 b 514 207 410 419 514 336 b 339 47 514 103 429 47 b 122 283 235 47 122 122 b 238 506 122 360 160 451 z "},"9":{"ha":728,"x_min":0,"x_max":0,"o":"m 456 368 b 475 375 464 374 471 375 b 479 353 482 375 483 368 b 165 39 424 181 318 39 l 165 0 b 364 983 757 0 838 983 b 351 343 -26 983 -60 343 b 456 368 390 343 425 353 z m 364 958 b 517 536 492 958 542 753 b 356 382 507 447 449 382 b 364 958 115 382 167 958 z "},"\r":{"ha":347,"x_min":0,"x_max":0,"o":""}," ":{"ha":389,"x_min":0,"x_max":0,"o":""},"a":{"ha":661,"x_min":0,"x_max":0,"o":"m 390 556 b 49 217 278 533 49 432 b 250 -10 49 56 150 -10 b 396 44 304 -10 360 10 b 424 63 408 57 418 63 b 432 33 429 63 432 53 l 432 0 l 569 0 l 569 529 b 347 713 569 656 457 713 b 118 576 189 713 110 642 l 256 576 b 340 672 256 604 267 672 b 426 603 397 672 426 642 b 390 556 426 579 418 561 z m 432 215 b 311 83 432 128 372 83 b 188 222 250 83 188 129 b 382 513 188 396 300 485 b 432 471 410 522 432 503 z "},"b":{"ha":703,"x_min":0,"x_max":0,"o":"m 357 713 b 229 654 307 713 260 692 l 229 972 l 92 972 l 92 0 l 229 0 l 229 74 b 368 -11 254 26 297 -11 b 357 713 742 -11 760 713 z m 353 83 b 229 247 239 83 231 190 l 229 439 b 360 672 229 575 275 672 b 353 83 589 672 556 83 z "},"c":{"ha":668,"x_min":0,"x_max":0,"o":"m 367 713 b 349 -11 -44 713 -62 -11 b 596 199 511 -11 596 96 l 565 199 b 394 83 543 129 478 83 b 367 674 118 83 153 674 b 481 493 447 674 481 568 l 604 554 b 367 713 588 642 507 713 z "},"d":{"ha":718,"x_min":0,"x_max":0,"o":"m 489 972 l 489 654 b 361 713 458 692 411 713 b 319 -11 -42 713 -54 -11 b 489 108 406 -11 458 47 l 489 0 l 626 0 l 626 972 z m 338 83 b 360 672 135 83 129 672 b 489 393 443 672 489 563 l 489 247 b 338 83 488 190 451 83 z "},"e":{"ha":692,"x_min":0,"x_max":0,"o":"m 204 289 b 240 331 201 314 215 331 l 629 331 b 367 713 671 468 629 713 b 349 -11 -44 713 -62 -11 b 611 199 511 -11 611 96 l 581 199 b 394 83 558 129 478 83 b 204 289 285 83 217 174 z m 504 411 b 454 369 500 388 479 369 l 239 369 b 199 411 214 369 197 388 b 367 674 207 547 268 674 b 504 411 475 674 526 543 z "},"g":{"ha":676,"x_min":0,"x_max":0,"o":"m 58 74 b 501 -164 58 -99 501 32 b 328 -300 501 -258 415 -300 b 153 -81 226 -300 153 -210 l 28 -137 b 303 -339 28 -239 121 -339 b 624 -124 486 -339 624 -250 b 125 69 624 189 125 -8 b 353 140 125 121 247 140 b 626 436 513 140 626 254 b 601 563 626 483 618 525 b 589 824 586 619 493 764 l 483 899 b 496 676 407 817 446 742 b 349 713 453 700 404 713 b 60 429 192 713 60 607 b 207 175 60 299 121 213 b 58 74 101 172 58 118 z m 376 672 b 326 179 568 672 504 179 b 376 672 132 179 182 672 z "},"h":{"ha":692,"x_min":0,"x_max":0,"o":"m 92 972 l 92 0 l 229 0 l 229 281 b 392 667 229 486 300 667 b 464 539 453 667 464 583 l 464 0 l 601 0 l 601 529 b 426 713 601 646 525 713 b 261 611 342 713 290 663 b 229 617 235 564 229 565 l 229 972 z "},"f":{"ha":407,"x_min":0,"x_max":0,"o":"m 208 754 b 278 889 208 856 247 889 b 318 853 300 889 318 872 l 357 853 b 247 946 357 914 306 946 b 71 754 167 946 71 886 l 71 694 l 15 694 l 15 656 b 71 600 50 656 71 633 l 71 0 l 208 0 l 208 656 l 332 656 l 332 694 l 208 694 z "},"j":{"ha":303,"x_min":0,"x_max":0,"o":"m 158 938 b 158 775 50 938 49 775 b 158 938 267 775 265 938 z m 89 694 l 89 -228 b 8 -349 89 -312 54 -349 l 8 -379 b 226 -168 81 -379 226 -393 l 226 694 z "},"k":{"ha":653,"x_min":0,"x_max":0,"o":"m 413 424 b 399 472 388 436 383 453 l 583 694 l 500 694 l 451 597 l 260 365 b 239 351 251 356 244 351 b 228 376 232 351 228 360 l 228 972 l 90 972 l 90 0 l 228 0 l 228 225 b 254 297 228 249 239 278 l 325 383 b 371 397 339 399 358 406 b 453 0 435 358 453 182 l 590 0 b 413 424 590 204 528 369 z "},"l":{"ha":319,"x_min":0,"x_max":0,"o":"m 92 972 l 92 0 l 229 0 l 229 972 z "},"m":{"ha":1063,"x_min":0,"x_max":0,"o":"m 228 694 l 90 694 l 90 0 l 228 0 l 228 281 b 390 667 228 486 303 667 b 463 539 451 667 463 583 l 463 0 l 600 0 l 600 281 b 763 667 600 486 671 667 b 835 539 824 667 835 583 l 835 0 l 972 0 l 972 529 b 797 713 972 646 896 713 b 632 611 713 713 661 663 b 603 579 618 588 610 579 b 590 594 596 579 592 588 b 425 713 568 671 503 713 b 260 611 340 713 289 663 b 235 576 247 589 239 576 b 228 617 229 576 228 590 z "},"n":{"ha":690,"x_min":0,"x_max":0,"o":"m 228 694 l 90 694 l 90 0 l 228 0 l 228 281 b 390 667 228 486 299 667 b 463 539 451 667 463 583 l 463 0 l 600 0 l 600 529 b 425 713 600 646 524 713 b 260 611 340 713 289 663 b 235 576 247 589 239 576 b 228 617 229 576 228 590 z "},"o":{"ha":778,"x_min":0,"x_max":0,"o":"m 389 -11 b 389 713 840 -11 844 713 b 389 -11 -67 713 -62 -11 z m 371 28 b 408 674 117 28 150 674 b 371 28 665 674 625 28 z "},"p":{"ha":703,"x_min":0,"x_max":0,"o":"m 229 694 l 92 694 l 92 -272 l 229 -272 l 229 18 b 239 44 229 36 232 44 b 263 29 244 44 251 39 b 368 -11 288 6 322 -11 b 357 713 742 -11 760 713 b 250 675 317 713 279 700 b 229 683 236 664 229 667 z m 353 83 b 229 247 239 83 231 190 l 229 443 b 360 672 229 592 275 672 b 353 83 589 672 556 83 z "},"q":{"ha":718,"x_min":0,"x_max":0,"o":"m 468 675 b 361 713 439 700 401 713 b 319 -11 -42 713 -54 -11 b 460 61 383 -11 428 19 b 481 79 469 74 476 79 b 489 51 486 79 489 69 l 489 -272 l 626 -272 l 626 694 l 489 694 l 489 683 b 468 675 489 667 482 664 z m 338 83 b 360 672 135 83 129 672 b 489 444 443 672 489 594 l 489 247 b 338 83 488 190 451 83 z "},"r":{"ha":467,"x_min":0,"x_max":0,"o":"m 228 694 l 90 694 l 90 0 l 228 0 l 228 401 b 401 557 228 490 315 557 l 404 694 b 254 565 335 694 281 610 b 228 574 225 518 228 528 z "},"s":{"ha":592,"x_min":0,"x_max":0,"o":"m 503 560 b 279 713 514 628 457 713 b 53 529 192 713 53 669 b 428 143 53 313 428 349 b 304 28 428 92 397 28 b 193 218 189 28 164 139 l 56 218 b 300 -11 18 39 165 -11 b 543 200 433 -11 543 78 b 157 572 543 474 157 432 b 281 674 157 622 189 674 b 400 560 382 674 400 586 z "},"t":{"ha":324,"x_min":0,"x_max":0,"o":"m 75 694 l 14 694 l 14 656 b 75 604 64 656 75 643 l 75 144 b 301 0 75 6 178 0 l 301 39 b 213 163 272 39 213 61 l 213 656 l 301 656 l 301 694 l 213 694 l 213 886 l 75 886 z "},"u":{"ha":690,"x_min":0,"x_max":0,"o":"m 346 -11 b 600 208 453 -11 600 28 l 600 694 l 463 694 l 463 210 b 346 28 463 104 422 28 b 228 210 269 28 228 104 l 228 694 l 90 694 l 90 208 b 346 -11 90 28 239 -11 z "},"v":{"ha":564,"x_min":0,"x_max":0,"o":"m 182 694 l 36 694 l 272 0 l 315 0 l 543 694 l 460 694 l 463 572 l 361 267 b 344 243 356 250 350 243 b 328 265 339 243 332 250 z "},"w":{"ha":896,"x_min":0,"x_max":0,"o":"m 361 267 b 344 243 356 250 350 243 b 328 265 339 243 332 250 l 182 694 l 36 694 l 272 0 l 315 0 l 440 381 b 457 404 446 396 451 404 b 474 381 463 404 469 396 l 603 0 l 647 0 l 874 694 l 792 694 l 793 572 l 693 267 b 676 243 688 250 682 243 b 658 265 669 243 664 250 l 513 694 l 367 694 l 418 544 b 419 442 429 514 429 472 z "},"x":{"ha":557,"x_min":0,"x_max":0,"o":"m 56 694 l 214 343 l 35 0 l 119 0 l 139 114 l 235 299 l 371 0 l 522 0 l 349 382 l 513 694 l 429 694 l 410 581 l 329 426 l 207 694 z "},"y":{"ha":564,"x_min":0,"x_max":0,"o":"m 182 694 l 36 694 l 272 -3 l 256 -54 b 121 -150 232 -131 171 -150 b 69 -143 101 -150 83 -147 l 69 -281 b 106 -286 82 -285 94 -286 b 265 -153 174 -286 239 -233 l 543 694 l 460 694 l 463 572 l 361 267 b 344 243 356 250 350 243 b 328 265 339 243 332 250 z "},"z":{"ha":553,"x_min":0,"x_max":0,"o":"m 35 0 l 501 0 l 501 83 l 374 39 l 194 39 l 517 685 b 511 694 519 690 517 694 l 74 694 l 74 611 l 201 656 l 343 656 l 35 39 z "},"i":{"ha":317,"x_min":0,"x_max":0,"o":"m 158 936 b 158 775 50 936 50 775 b 158 936 267 775 267 936 z m 90 694 l 90 0 l 228 0 l 228 694 z "},"O":{"ha":1101,"x_min":0,"x_max":0,"o":"m 551 -11 b 551 983 1203 -11 1208 983 b 551 -11 -106 982 -100 -11 z m 519 35 b 585 936 68 35 128 936 b 519 35 1042 936 971 35 z "},"N":{"ha":782,"x_min":0,"x_max":0,"o":"m 142 782 b 151 813 142 801 146 813 b 174 790 157 813 165 804 l 643 0 l 682 0 l 682 972 l 599 972 l 643 844 l 643 342 b 633 311 643 322 639 311 b 611 333 628 311 619 319 l 232 972 l 101 972 l 101 0 l 185 0 l 140 128 z "},"J":{"ha":479,"x_min":0,"x_max":0,"o":"m 106 933 l 242 933 l 242 290 b 26 39 242 128 149 39 l 26 0 b 379 317 238 0 379 58 l 379 972 l 106 972 z "},"K":{"ha":776,"x_min":0,"x_max":0,"o":"m 400 579 b 383 622 372 586 367 601 l 675 972 l 554 972 l 544 878 l 268 546 b 250 532 261 536 254 532 b 239 556 243 532 239 540 l 239 972 l 101 972 l 101 0 l 239 0 l 239 401 b 268 483 239 429 251 461 l 299 518 b 374 547 318 543 349 553 b 565 0 496 517 565 281 l 703 0 b 400 579 703 318 582 536 z "},"L":{"ha":588,"x_min":0,"x_max":0,"o":"m 240 972 l 103 972 l 103 0 l 542 0 l 542 83 l 414 39 l 319 39 b 240 126 274 39 240 71 z "},"M":{"ha":986,"x_min":0,"x_max":0,"o":"m 526 300 b 501 267 518 278 510 267 b 476 299 493 267 483 278 l 242 972 l 101 972 l 101 0 l 186 0 l 139 128 l 139 710 b 151 769 139 749 143 769 b 181 717 158 769 168 751 l 426 0 l 469 0 l 708 721 b 738 774 721 756 731 774 b 749 715 744 774 749 754 l 749 0 l 886 0 l 886 972 l 749 972 z "},"P":{"ha":757,"x_min":0,"x_max":0,"o":"m 367 386 b 699 681 513 386 699 451 b 419 972 699 897 546 972 l 101 972 l 101 0 l 239 0 l 239 339 b 288 386 239 368 258 386 z m 239 847 b 326 933 239 904 276 933 l 382 933 b 561 681 475 933 561 856 b 354 425 561 517 483 425 l 288 425 b 239 474 258 425 239 444 z "},"Q":{"ha":1101,"x_min":0,"x_max":0,"o":"m 551 -11 b 749 25 625 -11 692 1 l 803 -100 l 846 -100 l 783 40 b 551 983 1192 244 1118 983 b 551 -11 -106 982 -100 -11 z m 519 35 b 585 936 68 35 128 936 b 744 131 950 936 978 363 l 639 372 l 596 372 l 714 103 b 519 35 660 61 594 35 z "},"S":{"ha":761,"x_min":0,"x_max":0,"o":"m 349 938 b 547 732 494 938 547 817 l 685 732 b 364 976 685 849 607 976 b 61 754 219 976 78 913 b 586 175 28 426 628 497 b 386 31 575 85 500 31 b 197 271 246 31 197 131 l 61 271 b 386 -10 61 103 185 -10 b 701 244 551 -10 686 69 b 168 806 733 603 133 558 b 349 938 182 904 269 938 z "},"U":{"ha":819,"x_min":0,"x_max":0,"o":"m 103 972 l 103 296 b 417 -7 103 97 261 -7 b 718 300 568 -7 718 93 l 718 972 l 635 972 l 679 844 l 679 369 b 461 96 679 186 571 96 b 240 369 351 96 240 188 l 240 972 z "},"V":{"ha":781,"x_min":0,"x_max":0,"o":"m 193 972 l 47 972 l 381 0 l 425 0 l 749 972 l 665 972 l 668 851 l 483 294 b 456 257 475 269 465 257 b 426 294 444 257 435 269 z "},"W":{"ha":1256,"x_min":0,"x_max":0,"o":"m 483 294 b 456 257 475 269 465 257 b 426 294 444 257 435 269 l 193 972 l 47 972 l 381 0 l 425 0 l 608 553 b 638 590 618 578 628 590 b 665 553 647 590 657 578 l 856 -1 l 900 -1 l 1224 971 l 1140 971 l 1144 850 l 958 293 b 931 256 950 268 940 256 b 901 293 919 256 910 268 l 668 971 l 522 971 l 588 779 b 589 611 606 729 606 663 z "},"X":{"ha":736,"x_min":0,"x_max":0,"o":"m 275 356 b 317 392 288 379 301 392 b 357 356 331 392 344 379 l 533 -1 l 690 0 l 443 496 b 444 585 429 522 431 558 l 656 972 l 572 972 l 550 860 l 443 661 b 401 626 431 639 415 626 b 361 663 388 626 374 639 l 207 972 l 50 972 l 272 522 b 271 433 286 496 285 460 l 46 0 l 132 0 l 149 113 z "},"Y":{"ha":721,"x_min":0,"x_max":0,"o":"m 289 456 b 322 304 308 413 322 351 l 322 0 l 460 0 l 460 399 b 493 550 460 446 474 507 l 689 972 l 606 972 l 593 857 l 460 567 b 426 535 450 546 439 535 b 393 567 415 535 403 546 l 201 972 l 46 972 z "},"Z":{"ha":693,"x_min":0,"x_max":0,"o":"m 47 39 l 47 0 l 647 0 l 647 83 l 519 39 l 268 39 b 229 100 229 39 218 75 l 629 972 l 82 972 l 82 889 l 210 933 l 392 933 b 426 871 422 933 444 911 z "},"B":{"ha":832,"x_min":0,"x_max":0,"o":"m 604 583 b 700 751 649 611 700 663 b 450 972 700 921 561 972 l 103 972 l 103 0 l 390 0 b 774 313 576 0 774 65 b 610 544 774 439 706 519 b 604 583 571 554 569 561 z m 240 847 b 328 933 240 904 276 935 l 383 933 b 563 751 476 931 563 875 b 356 561 563 629 485 561 l 296 561 b 240 617 263 561 240 583 z m 413 522 b 636 313 581 522 636 433 b 390 39 636 144 558 40 l 319 39 b 240 126 274 39 240 71 l 240 467 b 296 522 240 500 263 522 z "},"R":{"ha":772,"x_min":0,"x_max":0,"o":"m 488 519 b 699 751 588 551 699 628 b 449 972 699 921 560 972 l 101 972 l 101 0 l 239 0 l 239 443 b 282 486 239 469 257 486 l 318 486 b 589 0 522 486 589 238 l 726 0 b 485 475 726 204 628 401 b 488 519 438 500 438 503 z m 239 847 b 326 933 239 904 275 933 l 382 933 b 561 751 475 933 561 874 b 354 525 561 629 483 525 l 282 525 b 239 568 257 525 239 543 z "},"C":{"ha":965,"x_min":0,"x_max":0,"o":"m 842 258 b 553 106 772 129 646 106 b 546 940 76 106 94 940 b 765 706 715 940 774 782 l 893 754 b 543 983 853 917 696 983 b 543 -11 -103 983 -97 -11 b 881 258 743 -11 865 132 z "},"D":{"ha":878,"x_min":0,"x_max":0,"o":"m 390 0 b 390 972 975 0 950 972 l 103 972 l 103 0 z m 382 933 b 390 39 774 933 772 42 l 319 39 b 240 126 274 39 240 71 l 240 847 b 328 933 240 904 276 933 z "},"E":{"ha":682,"x_min":0,"x_max":0,"o":"m 240 444 b 282 486 240 469 257 486 l 421 486 l 560 442 l 560 569 l 421 525 l 282 525 b 240 567 257 525 240 542 l 240 847 b 328 933 240 904 276 933 l 482 933 l 610 889 l 610 972 l 103 972 l 103 0 l 610 0 l 610 83 l 482 39 l 319 39 b 240 126 274 39 240 71 z "},"G":{"ha":965,"x_min":0,"x_max":0,"o":"m 753 229 b 544 56 753 125 664 56 b 546 940 82 56 97 940 b 765 706 715 940 774 782 l 893 754 b 543 983 853 917 696 983 b 543 0 -103 983 -97 0 b 892 228 692 0 892 36 l 892 506 l 578 506 l 578 465 l 707 465 b 753 419 735 465 753 447 z "},"H":{"ha":825,"x_min":0,"x_max":0,"o":"m 239 972 l 101 972 l 101 0 l 239 0 l 239 444 b 281 486 239 469 256 486 l 544 486 b 586 444 569 486 586 469 l 586 0 l 725 0 l 725 972 l 586 972 l 586 567 b 544 525 586 542 569 525 l 281 525 b 239 567 256 525 239 542 z "},"I":{"ha":339,"x_min":0,"x_max":0,"o":"m 239 0 l 239 972 l 101 972 l 101 0 z "},"T":{"ha":625,"x_min":0,"x_max":0,"o":"m 201 933 b 244 890 228 933 244 917 l 244 0 l 382 0 l 382 890 b 425 933 382 917 399 933 l 467 933 l 594 889 l 594 972 l 32 972 l 32 889 l 160 933 z "},"A":{"ha":794,"x_min":0,"x_max":0,"o":"m 607 0 l 750 0 l 418 972 l 258 972 l 310 838 l 32 0 l 115 0 l 107 106 l 144 218 b 200 258 153 243 175 258 l 475 258 b 531 218 500 258 522 243 z m 490 338 b 463 297 499 314 488 297 l 213 297 b 185 338 188 297 176 314 l 315 733 b 333 757 321 750 328 757 b 351 733 340 757 346 750 z "},",":{"ha":236,"x_min":0,"x_max":0,"o":"m 119 -90 b 188 61 146 -68 188 11 b 117 138 188 113 153 138 b 49 63 83 138 49 113 b 108 1 49 29 76 1 b 88 -67 119 1 103 -49 z "},".":{"ha":231,"x_min":0,"x_max":0,"o":"m 49 68 b 115 -1 49 22 82 -1 b 182 68 149 -1 182 22 b 115 138 182 114 149 138 b 49 68 82 138 49 114 z "},"!":{"ha":289,"x_min":0,"x_max":0,"o":"m 103 258 l 186 258 l 214 972 l 75 972 z m 144 158 b 144 -3 38 158 36 -3 b 144 158 254 -3 253 158 z "},"/":{"ha":486,"x_min":0,"x_max":0,"o":"m 104 0 l 542 972 l 472 972 l 35 0 z "},"?":{"ha":590,"x_min":0,"x_max":0,"o":"m 540 776 b 304 986 540 918 424 986 b 50 754 172 986 38 904 l 188 754 b 311 954 175 890 244 954 b 422 818 367 954 422 908 b 217 360 422 654 217 572 l 217 258 l 274 258 l 274 296 b 540 776 274 461 540 529 z m 250 158 b 250 -3 143 158 142 -3 b 250 158 360 -3 358 158 z "},"(":{"ha":408,"x_min":0,"x_max":0,"o":"m 400 -11 b 400 982 117 -11 117 982 l 400 1021 b 400 -50 -67 1021 -68 -51 z "},"[":{"ha":299,"x_min":0,"x_max":0,"o":"m 292 -50 l 292 -11 l 186 -11 l 186 983 l 292 983 l 292 1022 l 49 1021 l 49 -50 z "},"{":{"ha":404,"x_min":0,"x_max":0,"o":"m 174 321 b 397 -50 172 53 244 -50 l 397 -11 b 313 321 299 -11 313 125 b 192 486 313 465 206 482 b 313 656 204 490 313 504 b 394 983 313 851 296 983 l 394 1021 b 174 656 242 1021 172 924 b 49 504 174 522 111 504 l 49 465 b 174 321 111 465 174 440 z "},"*":{"ha":576,"x_min":0,"x_max":0,"o":"m 189 529 l 289 689 l 388 529 l 465 586 l 344 729 l 526 775 l 497 867 l 324 796 l 336 983 l 240 983 l 254 796 l 79 867 l 50 775 l 232 729 l 111 586 z "},"&":{"ha":1029,"x_min":0,"x_max":0,"o":"m 789 0 l 994 0 b 782 204 954 38 872 113 b 807 335 800 247 807 292 b 608 524 807 463 715 524 b 514 508 578 524 546 518 b 483 551 504 524 493 538 b 496 988 826 579 815 988 b 256 751 332 988 256 871 b 313 556 256 690 278 624 b 78 249 156 511 78 390 b 413 -26 78 64 244 -26 b 704 83 544 -26 640 19 b 789 0 739 50 768 22 z m 468 575 b 385 794 418 656 385 732 b 496 949 385 883 432 949 b 468 575 644 949 636 597 z m 342 69 b 217 297 271 110 217 189 b 326 531 217 404 251 489 b 388 436 344 499 365 467 b 288 201 329 382 288 303 b 342 69 288 156 303 103 z m 746 240 b 532 486 672 317 596 401 b 597 494 554 492 575 494 b 763 335 686 494 763 443 b 746 240 763 303 757 271 z m 507 47 b 460 42 490 44 474 42 b 318 206 338 42 318 154 b 403 414 318 296 353 365 b 667 121 485 306 585 203 b 507 44 625 83 571 56 z "},"@":{"ha":1046,"x_min":0,"x_max":0,"o":"m 622 225 b 644 219 633 239 639 238 b 771 136 661 167 713 136 b 997 461 865 136 997 235 b 543 901 997 753 772 901 b 49 392 299 901 49 735 b 551 -100 49 50 307 -100 b 893 24 683 -100 811 -57 l 865 47 b 556 -61 796 -22 678 -61 b 88 392 331 -61 88 71 b 542 864 88 710 318 864 b 958 461 753 864 958 726 b 781 185 958 279 854 185 b 713 267 742 185 713 213 l 714 656 l 640 656 l 640 643 b 619 633 640 629 633 625 b 536 653 597 646 568 653 b 293 392 431 653 293 579 b 482 154 293 231 388 154 b 622 225 535 154 588 178 z m 640 444 l 640 350 b 511 214 640 268 575 214 b 378 414 444 214 378 271 b 532 610 378 532 460 610 b 640 444 589 610 640 561 z "},"`":{"ha":222,"x_min":0,"x_max":0,"o":"m 49 871 l 89 871 b 188 1029 96 876 188 1029 l 108 1029 z "},";":{"ha":236,"x_min":0,"x_max":0,"o":"m 53 524 b 119 456 53 478 86 456 b 186 524 153 456 186 478 b 119 593 186 569 153 593 b 53 524 86 593 53 569 z m 119 42 b 188 193 146 65 188 144 b 117 269 188 244 153 269 b 49 194 83 269 49 244 b 108 133 49 161 76 133 b 88 65 119 133 103 85 z "},":":{"ha":232,"x_min":0,"x_max":0,"o":"m 50 524 b 117 456 50 478 83 456 b 183 524 150 456 183 478 b 117 593 183 569 150 593 b 50 524 83 593 50 569 z m 49 201 b 115 133 49 156 82 133 b 182 201 149 133 182 156 b 115 271 182 247 149 271 b 49 201 82 271 49 247 z "},"+":{"ha":561,"x_min":0,"x_max":0,"o":"m 63 486 l 249 486 l 249 300 l 311 300 l 311 486 l 497 486 l 497 549 l 311 549 l 311 735 l 249 735 l 249 549 l 63 549 z "},"=":{"ha":560,"x_min":0,"x_max":0,"o":"m 63 565 l 497 565 l 497 628 l 63 628 z m 63 404 l 497 404 l 497 467 l 63 467 z "},">":{"ha":414,"x_min":0,"x_max":0,"o":"m 64 303 l 365 518 l 64 732 l 63 656 l 256 518 l 63 378 z "},"}":{"ha":404,"x_min":0,"x_max":0,"o":"m 232 321 b 356 465 231 440 293 465 l 356 504 b 232 656 293 504 231 522 b 10 1021 232 924 163 1021 l 10 983 b 92 656 108 983 92 851 b 214 486 92 504 201 490 b 92 321 200 482 92 465 b 7 -11 92 125 106 -11 l 7 -50 b 232 321 160 -50 232 53 z "},"]":{"ha":299,"x_min":0,"x_max":0,"o":"m 250 1021 l 7 1022 l 7 983 l 113 983 l 113 -11 l 7 -11 l 7 -50 l 250 -50 z "},")":{"ha":408,"x_min":0,"x_max":0,"o":"m 8 -50 b 8 1021 476 -51 475 1021 l 8 983 b 8 -11 292 983 292 -11 z "},"<":{"ha":413,"x_min":0,"x_max":0,"o":"m 158 518 l 350 656 l 350 732 l 49 518 l 350 303 l 350 379 z "},"|":{"ha":215,"x_min":0,"x_max":0,"o":"m 139 -53 l 139 1038 l 76 1038 l 76 -53 z "},"-":{"ha":560,"x_min":0,"x_max":0,"o":"m 63 486 l 497 486 l 497 549 l 63 549 z "},"#":{"ha":749,"x_min":0,"x_max":0,"o":"m 151 0 l 244 333 l 413 335 l 319 0 l 389 0 l 482 335 l 683 336 l 683 399 l 500 397 l 553 588 l 714 589 l 714 651 l 569 650 l 660 972 l 590 972 l 500 650 l 332 649 l 422 972 l 353 972 l 263 649 l 65 649 l 65 586 l 244 586 l 192 396 l 35 396 l 35 333 l 175 333 l 82 0 z m 314 586 l 483 588 l 431 397 l 261 396 z "},"^":{"ha":526,"x_min":0,"x_max":0,"o":"m 264 847 l 401 656 l 478 656 l 264 957 l 49 656 l 125 656 z "},"'":{"ha":221,"x_min":0,"x_max":0,"o":"m 172 754 l 172 972 l 35 972 l 83 754 z "},"_":{"ha":640,"x_min":0,"x_max":0,"o":"m 647 0 l -7 0 l -7 -64 l 647 -62 z "},"\\":{"ha":479,"x_min":0,"x_max":0,"o":"m 15 972 l -56 972 l 382 0 l 451 0 z "},"%":{"ha":706,"x_min":0,"x_max":0,"o":"m 211 586 b 211 983 446 586 446 983 b 211 586 -24 983 -24 586 z m 124 0 l 639 972 l 568 972 l 53 0 z m 210 625 b 211 944 101 625 103 944 b 210 625 319 944 318 625 z m 494 -11 b 494 386 729 -11 729 386 b 494 -11 260 386 260 -11 z m 493 28 b 494 347 385 28 386 347 b 493 28 601 347 600 28 z "},"$":{"ha":775,"x_min":0,"x_max":0,"o":"m 353 -115 l 415 -115 l 415 -8 b 711 244 572 -3 696 76 b 415 579 728 436 565 513 l 415 931 b 557 732 518 904 557 804 l 694 732 b 415 975 694 842 626 963 l 415 1088 l 353 1088 l 353 976 b 71 754 217 971 88 904 b 353 454 54 583 207 521 l 353 33 b 207 271 246 53 207 146 l 71 271 b 353 -7 71 115 176 8 z m 353 608 b 178 806 247 657 164 708 b 353 938 192 903 275 936 z m 415 425 b 596 175 524 371 613 306 b 415 31 585 90 518 38 z "},"~":{"ha":599,"x_min":0,"x_max":0,"o":"m 89 435 b 133 475 89 464 106 475 b 446 404 206 475 347 404 b 549 517 506 404 549 431 l 549 568 l 510 568 l 510 543 b 465 504 510 514 493 504 b 154 575 393 504 251 575 b 50 461 93 575 50 549 l 50 410 l 89 410 z "},"F":{"ha":682,"x_min":0,"x_max":0,"o":"m 240 444 b 282 486 240 469 257 486 l 421 486 l 560 442 l 560 569 l 421 525 l 282 525 b 240 567 257 525 240 542 l 240 847 b 328 933 240 904 276 933 l 482 933 l 610 889 l 610 972 l 103 972 l 103 0 l 240 0 z "},"\"":{"ha":419,"x_min":0,"x_max":0,"o":"m 172 754 l 172 972 l 35 972 l 83 754 z m 371 754 l 371 972 l 233 972 l 282 754 z "},"":{"ha":690,"x_min":0,"x_max":0,"o":"m 228 694 l 90 694 l 90 0 l 228 0 l 228 281 b 232 368 228 310 229 339 b 463 0 235 167 357 0 l 600 0 l 600 529 b 425 713 600 646 524 713 b 260 611 340 713 289 663 b 228 617 233 564 228 565 z m 313 619 b 390 667 336 650 363 667 b 463 539 451 667 463 583 l 463 171 b 313 619 446 -37 119 281 z "},"":{"ha":690,"x_min":0,"x_max":0,"o":"m 346 -11 b 600 208 453 -11 600 28 l 600 694 l 463 694 b 228 400 385 694 268 628 l 228 694 l 90 694 l 90 208 b 346 -11 90 28 239 -11 z m 244 107 b 463 590 178 557 457 700 l 463 210 b 346 28 463 104 422 28 b 244 107 297 28 264 58 z "},"":{"ha":986,"x_min":0,"x_max":0,"o":"m 526 300 b 476 299 511 256 492 256 l 242 972 l 101 972 l 101 0 l 185 0 b 186 0 185 0 185 0 b 293 389 278 0 307 217 l 426 0 l 469 0 l 708 721 b 749 715 733 793 749 790 l 749 0 l 886 0 l 886 972 l 749 972 z m 139 128 l 139 710 b 181 717 139 785 156 788 l 244 528 b 139 128 321 240 207 -33 z "},"":{"ha":5347,"x_min":0,"x_max":0,"o":"m 526 300 b 476 299 511 256 492 256 l 242 972 l 101 972 l 101 0 l 185 0 b 186 0 185 0 185 0 b 293 389 278 0 307 217 l 426 0 l 469 0 l 708 721 b 749 715 733 793 749 790 l 749 0 l 886 0 l 886 972 l 749 972 z m 139 128 l 139 710 b 181 717 139 785 156 788 l 244 528 b 139 128 321 240 207 -33 z m 1303 556 b 961 217 1190 533 961 432 b 1163 -10 961 56 1063 -10 b 1308 44 1217 -10 1272 10 b 1336 63 1321 57 1331 63 b 1344 33 1342 63 1344 53 l 1344 0 l 1482 0 l 1482 529 b 1260 713 1482 656 1369 713 b 1031 576 1101 713 1022 642 l 1168 576 b 1253 672 1168 604 1179 672 b 1339 603 1310 672 1339 642 b 1303 556 1339 579 1331 561 z m 1344 215 b 1224 83 1344 128 1285 83 b 1100 222 1163 83 1100 129 b 1294 513 1100 396 1213 485 b 1344 471 1322 522 1344 503 z m 1567 74 b 2010 -164 1567 -99 2010 32 b 1836 -300 2010 -258 1924 -300 b 1661 -81 1735 -300 1661 -210 l 1536 -137 b 1811 -339 1536 -239 1629 -339 b 2132 -124 1994 -339 2132 -250 b 1633 69 2132 189 1633 -8 b 1861 140 1633 121 1756 140 b 2135 436 2021 140 2135 254 b 2110 563 2135 483 2126 525 b 2097 824 2094 619 2001 764 l 1992 899 b 2004 676 1915 817 1954 742 b 1857 713 1961 700 1913 713 b 1568 429 1700 713 1568 607 b 1715 175 1568 299 1629 213 b 1567 74 1610 172 1567 118 z m 1885 672 b 1835 179 2076 672 2013 179 b 1885 672 1640 179 1690 672 z m 2363 694 l 2225 694 l 2225 0 l 2363 0 l 2363 281 b 2367 368 2363 310 2364 339 b 2597 0 2369 167 2492 0 l 2735 0 l 2735 529 b 2560 713 2735 646 2658 713 b 2394 611 2475 713 2424 663 b 2363 617 2368 564 2363 565 z m 2447 619 b 2525 667 2471 650 2497 667 b 2597 539 2586 667 2597 583 l 2597 171 b 2447 619 2581 -37 2254 281 z m 2890 936 b 2890 775 2782 936 2782 775 b 2890 936 2999 775 2999 936 z m 2822 694 l 2822 0 l 2960 0 l 2960 694 z m 3104 694 l 3043 694 l 3043 656 b 3104 604 3093 656 3104 643 l 3104 144 b 3331 0 3104 6 3207 0 l 3331 39 b 3242 163 3301 39 3242 61 l 3242 656 l 3331 656 l 3331 694 l 3242 694 l 3242 886 l 3104 886 z m 3692 -11 b 3946 208 3799 -11 3946 28 l 3946 694 l 3808 694 b 3574 400 3731 694 3614 628 l 3574 694 l 3436 694 l 3436 208 b 3692 -11 3436 28 3585 -11 z m 3590 107 b 3808 590 3524 557 3803 700 l 3808 210 b 3692 28 3808 104 3768 28 b 3590 107 3643 28 3610 58 z m 4467 972 l 4467 654 b 4339 713 4436 692 4389 713 b 4297 -11 3936 713 3924 -11 b 4467 108 4383 -11 4436 47 l 4467 0 l 4604 0 l 4604 972 z m 4315 83 b 4338 672 4113 83 4107 672 b 4467 393 4421 672 4467 563 l 4467 247 b 4315 83 4465 190 4429 83 z m 4833 289 b 4869 331 4831 314 4844 331 l 5258 331 b 4996 713 5300 468 5258 713 b 4978 -11 4585 713 4567 -11 b 5240 199 5140 -11 5240 96 l 5210 199 b 5024 83 5188 129 5107 83 b 4833 289 4914 83 4846 174 z m 5133 411 b 5083 369 5129 388 5108 369 l 4868 369 b 4828 411 4843 369 4826 388 b 4996 674 4836 547 4897 674 b 5133 411 5104 674 5156 543 z "},"\u0000":{"ha":0,"x_min":0,"x_max":0,"o":""}}}
